<svg version="1.2" xmlns="http://www.w3.org/2000/svg" viewBox="0 0 56 44" width="56" height="44">
	<title>&lt;Compound Path&gt;</title>
	<style>
		.s0 { fill: #000000 } 
	</style>
	<path id="&lt;Compound Path&gt;" fill-rule="evenodd" class="s0" d="m55.9 5.7v32.6c0 2.7-2.2 4.8-4.9 4.8h-45.7c-2.7 0-4.9-2.2-4.9-4.8v-32.6c0-2.6 2.2-4.8 4.9-4.8h45.7c2.7 0 4.9 2.2 4.9 4.8zm-49.9-1.6l22.2 22.1 22.1-22.1zm13.4 17.8l-15.7-15.5v31.2zm31 17.9l-15.5-15.5-5.4 5.3c-0.6 0.6-1.6 0.6-2.3 0l-5.5-5.4-15.6 15.6zm2.3-33.4l-15.6 15.6 15.6 15.5z"/>
</svg>