<svg version="1.2" xmlns="http://www.w3.org/2000/svg" viewBox="0 0 52 52" width="52" height="52">
	<title>&lt;Group&gt;</title>
	<style>
		.s0 { fill: #000000 } 
	</style>
	<g id="&lt;Group&gt;">
		<path id="&lt;Compound Path&gt;" fill-rule="evenodd" class="s0" d="m36.4 0.4c2.8 0.1 4.6 0.5 6.2 1.2 1.7 0.6 3.1 1.5 4.6 2.9 1.4 1.5 2.3 2.9 2.9 4.6 0.7 1.6 1.1 3.4 1.2 6.2 0.1 2.7 0.2 3.6 0.2 10.5 0 7-0.1 7.8-0.2 10.6-0.1 2.7-0.5 4.5-1.2 6.2-0.6 1.7-1.5 3.1-2.9 4.5-1.5 1.4-2.9 2.3-4.6 2.9-1.6 0.7-3.4 1.1-6.2 1.2-2.7 0.2-3.6 0.2-10.5 0.2-7 0-7.8 0-10.6-0.2-2.7-0.1-4.5-0.5-6.2-1.2-1.7-0.6-3.1-1.5-4.5-2.9-1.4-1.4-2.3-2.8-3-4.5-0.6-1.7-1-3.5-1.1-6.2-0.2-2.8-0.2-3.6-0.2-10.6 0-6.9 0-7.8 0.2-10.5 0.1-2.8 0.5-4.6 1.1-6.2 0.7-1.7 1.6-3.1 3-4.6 1.4-1.4 2.8-2.3 4.5-2.9 1.7-0.7 3.5-1.1 6.2-1.2 2.8-0.1 3.6-0.2 10.6-0.2 6.9 0 7.8 0.1 10.5 0.2zm-20.8 4.6c-2.5 0.1-3.9 0.5-4.8 0.9-1.2 0.4-2 1-2.9 1.9-0.9 0.9-1.5 1.7-2 2.9-0.3 0.9-0.7 2.3-0.8 4.8-0.2 2.7-0.2 3.5-0.2 10.3 0 6.8 0 7.7 0.2 10.3 0.1 2.5 0.5 3.9 0.8 4.8 0.5 1.2 1.1 2 2 2.9 0.9 0.9 1.7 1.5 2.9 2 0.9 0.3 2.3 0.7 4.8 0.8 2.6 0.2 3.5 0.2 10.3 0.2 6.8 0 7.6 0 10.3-0.2 2.5-0.1 3.9-0.5 4.8-0.8 1.2-0.5 2-1.1 2.9-2 0.9-0.9 1.5-1.7 1.9-2.9 0.4-0.9 0.8-2.3 0.9-4.8 0.1-2.6 0.2-3.5 0.2-10.3 0-6.8-0.1-7.6-0.2-10.3-0.1-2.5-0.5-3.9-0.9-4.8-0.4-1.2-1-2-1.9-2.9-0.9-0.9-1.7-1.5-2.9-1.9-0.9-0.4-2.3-0.8-4.8-0.9-2.7-0.1-3.5-0.2-10.3-0.2-6.8 0-7.7 0.1-10.3 0.2z"/>
		<path id="&lt;Path&gt;" class="s0" d="m42.6 12.2c0 1.8-1.6 3.2-3.4 3-1.4-0.1-2.6-1.3-2.7-2.7-0.2-1.8 1.2-3.4 3-3.4 1.7 0 3.1 1.4 3.1 3.1z"/>
		<path id="&lt;Compound Path&gt;" fill-rule="evenodd" class="s0" d="m38.7 25.8c0 7.1-5.8 12.8-12.8 12.8-7.1 0-12.8-5.7-12.8-12.8 0-7 5.7-12.8 12.8-12.8 7 0 12.8 5.8 12.8 12.8zm-4.3 0c0-4.7-3.8-8.5-8.5-8.5-4.7 0-8.5 3.8-8.5 8.5 0 4.7 3.8 8.5 8.5 8.5 4.7 0 8.5-3.8 8.5-8.5z"/>
	</g>
</svg>