<svg version="1.2" xmlns="http://www.w3.org/2000/svg" viewBox="0 0 43 66" width="43" height="66">
	<title>&lt;Compound Path&gt;</title>
	<style>
		.s0 { fill: #000000 } 
	</style>
	<path id="&lt;Compound Path&gt;" fill-rule="evenodd" class="s0" d="m43 7.2v51.2c0 3.9-3.2 7.1-7 7.1h-28.7c-3.9 0-7-3.2-7-7.1v-51.2c0-3.8 3.1-7 7-7h28.7c3.8 0 7 3.2 7 7zm-38.9 0v38.1h35.1v-38.1c0-1.7-1.5-3.2-3.2-3.2h-28.7c-1.8 0-3.2 1.5-3.2 3.2zm35.1 51.2v-9.3h-35.1v9.3c0 1.8 1.4 3.2 3.2 3.2h28.7c1.7 0 3.2-1.4 3.2-3.2zm-12.6-3c0 2.7-2.2 4.9-5 4.9-2.7 0-5-2.2-5-4.9 0-2.8 2.3-5 5-5 2.8 0 5 2.2 5 5zm-3.8 0c0-0.7-0.5-1.2-1.2-1.2-0.6 0-1.1 0.5-1.1 1.2 0 0.6 0.5 1.1 1.1 1.1 0.7 0 1.2-0.5 1.2-1.1z"/>
</svg>